<svg width="120" height="200" viewBox="0 0 120 200" xmlns="http://www.w3.org/2000/svg">
    <!-- Hebra izquierda (color gradiente morado/azul) -->
    <path d="M30,20 Q60,5 30,50 Q60,70 30,100 Q60,130 30,160 Q60,180 30,190" 
          stroke="url(#left-strand)" 
          stroke-width="4" 
          fill="none" />
    
    <!-- Hebra derecha (color gradiente rosa/naranja) -->
    <path d="M90,20 Q60,5 90,50 Q60,70 90,100 Q60,130 90,160 Q60,180 90,190" 
          stroke="url(#right-strand)" 
          stroke-width="4" 
          fill="none" />
    
    <!-- Puentes de hidrógeno (líneas horizontales) -->
    <line x1="40" y1="30" x2="80" y2="30" stroke="#4fc3f7" stroke-width="2" />
    <line x1="45" y1="60" x2="75" y2="60" stroke="#607af8bc" stroke-width="2" />
    <line x1="40" y1="90" x2="80" y2="90" stroke="#4fc3f7" stroke-width="2" />
    <line x1="45" y1="120" x2="75" y2="120" stroke="#607af8bc" stroke-width="2" />
    <line x1="40" y1="150" x2="80" y2="150" stroke="#4fc3f7" stroke-width="2" />
    <line x1="45" y1="180" x2="75" y2="180" stroke="#607af8bc" stroke-width="2" />
    
    <!-- Gradientes de color para las hebras -->
    <defs>
        <linearGradient id="left-strand" x1="0%" y1="0%" x2="100%" y2="100%">
            <stop offset="0%" stop-color="#9c27b0" />
            <stop offset="100%" stop-color="#3f51b5" />
        </linearGradient>
        <linearGradient id="right-strand" x1="0%" y1="0%" x2="100%" y2="100%">
            <stop offset="0%" stop-color="#ff4081" />
            <stop offset="100%" stop-color="#ff9800" />
        </linearGradient>
    </defs>
</svg>